<svg width="591" height="478" viewBox="0 0 591 478" fill="none" xmlns="http://www.w3.org/2000/svg">
<path d="M415.324 3.59721L75.7796 152.385C46.1456 165.372 41.6764 205.574 67.7446 224.742L366.353 444.433C392.415 463.607 429.466 447.374 433.032 415.227L473.968 46.7543C477.54 14.5801 444.958 -9.38932 415.324 3.59721Z" fill="#E84D8A"/>
<path d="M526.314 460.863H30.0615C29.7013 460.863 29.3558 460.72 29.101 460.465C28.8462 460.21 28.7031 459.865 28.7031 459.504C28.7031 459.144 28.8462 458.799 29.101 458.544C29.3558 458.289 29.7013 458.146 30.0615 458.146H526.314C526.674 458.146 527.02 458.289 527.275 458.544C527.529 458.799 527.673 459.144 527.673 459.504C527.673 459.865 527.529 460.21 527.275 460.465C527.02 460.72 526.674 460.863 526.314 460.863Z" fill="black"/>
<path d="M267.467 292.194C289.97 292.194 308.213 273.952 308.213 251.449C308.213 228.945 289.97 210.703 267.467 210.703C244.964 210.703 226.721 228.945 226.721 251.449C226.721 273.952 244.964 292.194 267.467 292.194Z" fill="black"/>
<path d="M179.774 74.3236H19.765C9.59933 74.3236 1.3584 82.5645 1.3584 92.7303V163.572C1.3584 173.738 9.59933 181.979 19.765 181.979H179.774C189.939 181.979 198.18 173.738 198.18 163.572V92.7303C198.18 82.5645 189.939 74.3236 179.774 74.3236Z" fill="white"/>
<path d="M179.774 183.337H19.7719C14.5297 183.332 9.50377 181.247 5.797 177.54C2.09022 173.833 0.00539411 168.807 0 163.565V92.7371C0.00539411 87.4949 2.09022 82.469 5.797 78.7622C9.50377 75.0554 14.5297 72.9706 19.7719 72.9652H179.774C185.015 72.9724 190.039 75.058 193.744 78.7646C197.45 82.4712 199.533 87.4961 199.539 92.7371V163.565C199.533 168.806 197.45 173.831 193.744 177.538C190.039 181.244 185.015 183.33 179.774 183.337V183.337ZM19.7719 75.682C15.2497 75.6856 10.9138 77.4837 7.71612 80.6813C4.51846 83.879 2.72045 88.2149 2.71685 92.7371V163.565C2.72045 168.087 4.51846 172.423 7.71612 175.621C10.9138 178.819 15.2497 180.617 19.7719 180.62H179.774C184.295 180.615 188.629 178.816 191.825 175.619C195.021 172.421 196.818 168.086 196.822 163.565V92.7371C196.818 88.2161 195.021 83.8812 191.825 80.6837C188.629 77.4863 184.295 75.6874 179.774 75.682H19.7719Z" fill="black"/>
<path d="M37.2817 110.648C36.9272 110.648 36.5868 110.51 36.333 110.262C36.0792 110.015 35.9322 109.678 35.9233 109.323C35.7942 103.795 37.8387 100.494 39.5842 98.6937C41.5098 96.6577 44.1598 95.462 46.9605 95.3656H47.0352C49.74 95.4228 52.3129 96.5456 54.1941 98.49C55.9736 100.276 58.086 103.604 58.0181 109.303C58.0181 109.663 57.8749 110.009 57.6202 110.264C57.3654 110.518 57.0199 110.661 56.6596 110.661C56.2994 110.661 55.9538 110.518 55.6991 110.264C55.4443 110.009 55.3012 109.663 55.3012 109.303C55.3556 104.549 53.6847 101.832 52.2719 100.439C50.8907 99.0154 49.0111 98.1827 47.0284 98.1164H46.9809C44.9129 98.2087 42.9629 99.1057 41.5472 100.616C39.5707 102.654 38.5654 105.656 38.6537 109.289C38.6582 109.468 38.6276 109.645 38.5634 109.812C38.4993 109.978 38.403 110.131 38.28 110.26C38.157 110.389 38.0097 110.493 37.8466 110.566C37.6835 110.638 37.5077 110.677 37.3293 110.682L37.2817 110.648Z" fill="black"/>
<path d="M66.4878 163.008H27.6505C26.6993 163.008 25.7592 162.804 24.8931 162.411C24.027 162.018 23.2549 161.444 22.6286 160.729C22.0022 160.013 21.5359 159.171 21.2611 158.261C20.9863 157.35 20.9092 156.391 21.035 155.449L26.4687 115.076C26.6827 113.474 27.4715 112.004 28.6884 110.939C29.9053 109.875 31.4674 109.288 33.0842 109.289H60.1576C61.7482 109.289 63.2866 109.857 64.4957 110.891C65.7048 111.924 66.5052 113.356 66.7527 114.927L73.0626 155.306C73.2127 156.257 73.1551 157.228 72.8938 158.155C72.6325 159.081 72.1737 159.939 71.5489 160.671C70.9241 161.403 70.1482 161.991 69.2745 162.394C68.4008 162.798 67.4502 163.007 66.4878 163.008Z" fill="#FEB326"/>
<path d="M172.003 103.129H98.4107C95.4885 103.129 93.1196 105.498 93.1196 108.42V112.529C93.1196 115.452 95.4885 117.82 98.4107 117.82H172.003C174.925 117.82 177.294 115.452 177.294 112.529V108.42C177.294 105.498 174.925 103.129 172.003 103.129Z" fill="#FEB326"/>
<path d="M173.783 136.417H96.6382C96.2779 136.417 95.9324 136.274 95.6777 136.019C95.4229 135.765 95.2798 135.419 95.2798 135.059C95.2798 134.698 95.4229 134.353 95.6777 134.098C95.9324 133.843 96.2779 133.7 96.6382 133.7H173.783C174.143 133.7 174.489 133.843 174.744 134.098C174.998 134.353 175.142 134.698 175.142 135.059C175.142 135.419 174.998 135.765 174.744 136.019C174.489 136.274 174.143 136.417 173.783 136.417Z" fill="black"/>
<path d="M162.922 153.873H96.6382C96.2779 153.873 95.9324 153.73 95.6777 153.475C95.4229 153.22 95.2798 152.875 95.2798 152.515C95.2798 152.154 95.4229 151.809 95.6777 151.554C95.9324 151.299 96.2779 151.156 96.6382 151.156H162.922C163.283 151.156 163.628 151.299 163.883 151.554C164.138 151.809 164.281 152.154 164.281 152.515C164.281 152.875 164.138 153.22 163.883 153.475C163.628 153.73 163.283 153.873 162.922 153.873Z" fill="black"/>
<path d="M389.317 327.35C412.845 327.35 431.918 308.399 431.918 285.022C431.918 261.644 412.845 242.693 389.317 242.693C365.79 242.693 346.717 261.644 346.717 285.022C346.717 308.399 365.79 327.35 389.317 327.35Z" fill="black"/>
<path d="M346.717 270.242C370.245 270.242 389.318 251.291 389.318 227.914C389.318 204.536 370.245 185.585 346.717 185.585C323.19 185.585 304.117 204.536 304.117 227.914C304.117 251.291 323.19 270.242 346.717 270.242Z" fill="black"/>
<path d="M309.293 221.115H283.401C277.027 221.115 270.716 219.86 264.828 217.42C258.94 214.981 253.589 211.406 249.083 206.899C244.576 202.391 241.002 197.041 238.563 191.152C236.125 185.263 234.87 178.952 234.871 172.579V139.46C234.88 131.847 237.912 124.548 243.299 119.169C248.686 113.789 255.989 110.768 263.602 110.77H298.561C310.407 110.77 321.768 115.476 330.144 123.852C338.52 132.229 343.226 143.589 343.226 155.435V187.243C343.222 191.695 342.342 196.103 340.635 200.215C338.927 204.327 336.427 208.062 333.275 211.208C330.124 214.353 326.385 216.847 322.269 218.547C318.154 220.247 313.745 221.119 309.293 221.115V221.115Z" fill="black"/>
<path d="M245.582 122.113C245.582 122.113 230.218 124.381 226.184 156.875C225.707 160.844 223.994 164.563 221.287 167.505L218.815 170.181C218.191 170.854 217.836 171.733 217.818 172.651C217.799 173.568 218.117 174.461 218.713 175.159L222.061 179.099L220.37 199.883C220.37 199.883 216.974 222.032 243.049 221.346H259.635V244.323H311.765V204.827C311.765 204.827 323.644 202.79 325.804 191.094C326.35 188.17 326.226 185.161 325.443 182.292C324.659 179.423 323.236 176.768 321.28 174.528C317.389 170.12 310.529 166.377 299.233 171.648C299.24 171.648 254.371 180.654 245.582 122.113Z" fill="white"/>
<path d="M308.213 196.113C307.138 196.113 306.087 195.794 305.194 195.197C304.3 194.6 303.604 193.751 303.192 192.759C302.781 191.766 302.674 190.673 302.883 189.619C303.093 188.565 303.61 187.597 304.37 186.837C305.13 186.077 306.098 185.56 307.152 185.35C308.206 185.14 309.299 185.248 310.292 185.659C311.285 186.07 312.133 186.767 312.73 187.66C313.328 188.554 313.646 189.604 313.646 190.679C313.646 192.12 313.074 193.502 312.055 194.521C311.036 195.54 309.654 196.113 308.213 196.113ZM308.213 187.922C307.675 187.922 307.15 188.081 306.703 188.379C306.256 188.678 305.908 189.102 305.702 189.599C305.497 190.095 305.443 190.641 305.548 191.168C305.653 191.695 305.911 192.18 306.291 192.559C306.671 192.939 307.155 193.198 307.682 193.303C308.209 193.408 308.756 193.354 309.252 193.148C309.749 192.943 310.173 192.595 310.471 192.148C310.77 191.701 310.929 191.176 310.929 190.638C310.929 189.918 310.643 189.227 310.134 188.717C309.624 188.208 308.933 187.922 308.213 187.922Z" fill="black"/>
<path d="M304.117 192.017C303.764 192.018 303.424 191.88 303.171 191.634C302.917 191.388 302.769 191.053 302.759 190.7C302.664 187.895 303.499 185.626 305.251 183.955C308.729 180.641 314.536 181.062 314.76 181.082C315.121 181.11 315.455 181.28 315.69 181.554C315.925 181.829 316.042 182.185 316.014 182.546C315.986 182.906 315.816 183.24 315.541 183.475C315.267 183.71 314.91 183.827 314.55 183.799V183.799C314.502 183.799 309.687 183.459 307.079 185.945C305.903 187.073 305.367 188.601 305.435 190.625C305.441 190.804 305.412 190.982 305.349 191.15C305.286 191.318 305.191 191.471 305.068 191.602C304.946 191.733 304.799 191.838 304.636 191.911C304.472 191.985 304.296 192.026 304.117 192.031V192.017Z" fill="black"/>
<path d="M251.05 171.607C252.824 171.607 254.263 170.168 254.263 168.394C254.263 166.62 252.824 165.181 251.05 165.181C249.276 165.181 247.837 166.62 247.837 168.394C247.837 170.168 249.276 171.607 251.05 171.607Z" fill="black"/>
<path d="M239.769 198.701C238.46 198.706 237.164 198.447 235.958 197.94C232.053 196.29 229.431 191.936 229.438 187.114C229.439 186.709 229.529 186.31 229.702 185.944C229.874 185.578 230.124 185.255 230.435 184.996C230.746 184.737 231.109 184.549 231.5 184.446C231.891 184.342 232.3 184.325 232.698 184.397L248.897 187.29C249.311 187.367 249.703 187.536 250.042 187.786C250.381 188.036 250.659 188.359 250.855 188.732C251.051 189.104 251.161 189.517 251.174 189.938C251.188 190.358 251.106 190.777 250.935 191.162C248.856 195.78 244.258 198.701 239.769 198.701ZM232.209 187.039C232.201 187.059 232.201 187.08 232.209 187.1C232.209 190.849 234.158 194.191 237.072 195.427C241.541 197.315 246.69 194.069 248.517 189.994L248.476 189.912L232.27 187.019L232.209 187.039Z" fill="black"/>
<path d="M259.208 221.373H284.114C284.335 221.375 284.548 221.452 284.719 221.592C284.889 221.732 285.007 221.927 285.051 222.143C285.096 222.359 285.065 222.584 284.963 222.78C284.862 222.976 284.697 223.132 284.495 223.22L259.208 234.02V221.373Z" fill="black"/>
<path d="M259.208 243.794C259.202 242.555 259.596 241.347 260.33 240.349C261.063 239.351 262.099 238.616 263.283 238.251C264.189 237.977 265.119 237.791 266.061 237.694C269.618 237.365 273.182 238.248 276.174 240.201C278.673 238.265 281.742 237.211 284.902 237.204C288.062 237.196 291.136 238.236 293.644 240.16C296.174 238.462 299.129 237.506 302.175 237.402C304.085 237.35 305.99 237.64 307.798 238.258C308.925 238.652 309.901 239.387 310.591 240.36C311.282 241.334 311.651 242.498 311.65 243.692V255.578H259.208V243.794Z" fill="#7F58AF"/>
<path d="M461.416 415.261L161.713 415.01L174.999 293.383C176.258 281.857 181.722 271.199 190.346 263.448C198.969 255.696 210.147 251.395 221.742 251.367L345.637 251.055C360.092 251.02 374.228 255.304 386.232 263.357C398.236 271.411 407.56 282.867 413.008 296.256C438.139 354.043 456.322 396.236 458.305 401.242C459.249 403.696 460.005 406.219 460.567 408.788C461.007 410.922 461.291 413.085 461.416 415.261V415.261Z" fill="#7F58AF"/>
<path d="M370.741 415.105H217.116V310.988H333.051C334.635 310.988 336.177 311.496 337.452 312.435C338.726 313.375 339.667 314.698 340.135 316.211L370.741 415.105Z" fill="black"/>
<path d="M333.031 312.347C332.708 312.351 332.393 312.24 332.144 312.034C331.895 311.827 331.728 311.538 331.673 311.219C331.292 308.971 322.551 256.128 340.788 249.778C341.128 249.659 341.502 249.68 341.827 249.837C342.152 249.993 342.401 250.273 342.52 250.613C342.639 250.953 342.617 251.327 342.461 251.652C342.304 251.977 342.025 252.226 341.684 252.345C328.324 256.991 331.863 296.093 334.356 310.757C334.386 310.933 334.381 311.114 334.341 311.288C334.301 311.462 334.228 311.627 334.124 311.773C334.021 311.919 333.89 312.043 333.738 312.138C333.587 312.232 333.418 312.297 333.242 312.326C333.172 312.339 333.102 312.345 333.031 312.347V312.347Z" fill="black"/>
<path d="M220.513 312.347C220.206 312.347 219.909 312.244 219.668 312.054C219.428 311.864 219.259 311.599 219.188 311.301C215.641 296.515 215.546 281.111 218.91 266.283C220.129 261.003 221.793 255.837 223.882 250.837C224.027 250.515 224.292 250.261 224.621 250.132C224.95 250.002 225.317 250.005 225.643 250.141C225.97 250.278 226.23 250.536 226.369 250.861C226.508 251.186 226.515 251.553 226.388 251.883C224.36 256.742 222.744 261.764 221.559 266.894C218.287 281.318 218.382 296.302 221.837 310.683C221.877 310.857 221.883 311.037 221.854 311.213C221.824 311.389 221.76 311.557 221.666 311.709C221.571 311.86 221.448 311.992 221.302 312.095C221.157 312.199 220.992 312.273 220.818 312.313C220.718 312.337 220.616 312.349 220.513 312.347V312.347Z" fill="black"/>
<path d="M201.094 227.404C199.682 225.578 198.061 223.923 196.265 222.473L196.19 222.405C192.831 219.424 189.913 215.98 187.523 212.176C185.404 208.78 184.127 205.303 182.049 199.95C181.01 197.288 180.276 195.196 179.869 194.028C175.026 180.117 171.847 167.647 166.93 165.854C166.189 165.603 165.42 165.445 164.641 165.385C163.603 165.288 162.556 165.4 161.562 165.713C160.569 166.027 159.648 166.537 158.854 167.212C158.327 167.662 157.87 168.186 157.495 168.768C155.594 171.79 156.538 176.171 158.487 184.804C158.8 186.162 159.078 187.283 159.261 188.03L163.208 206.125C163.208 206.125 153.508 208.318 154.052 216.007C154.052 216.007 145.086 210.696 141.609 221.128C141.609 221.128 130.266 222.045 133.56 234.488C133.56 234.488 138.131 251.143 144.903 251.693C144.903 251.693 143.626 277.679 165.218 289.049L200.537 284.607L202.86 274.542C208.973 248.052 206.215 239.46 205.19 236.282C204.198 233.164 202.823 230.182 201.094 227.404V227.404Z" fill="white"/>
<path d="M169.796 274.317C169.582 274.318 169.37 274.268 169.179 274.171C168.988 274.074 168.822 273.933 168.696 273.76C164.618 268.224 162.086 261.702 161.36 254.865C159.819 239.243 168.743 227.696 172.398 223.723L169.565 216.415C169.287 215.674 168.927 214.73 168.526 213.793C166.278 208.57 165.266 204.182 165.524 200.745C165.597 199.707 165.88 198.695 166.355 197.769C166.83 196.843 167.488 196.023 168.288 195.359C169.072 194.705 169.981 194.217 170.96 193.925C171.938 193.633 172.966 193.543 173.98 193.661C180.134 194.34 183.815 201.377 183.971 201.669C184.053 201.828 184.103 202.001 184.118 202.179C184.133 202.357 184.113 202.536 184.059 202.707C184.005 202.877 183.918 203.035 183.802 203.172C183.687 203.308 183.546 203.421 183.387 203.503C183.228 203.585 183.055 203.635 182.877 203.65C182.699 203.665 182.52 203.645 182.349 203.59C182.179 203.536 182.021 203.449 181.884 203.334C181.748 203.218 181.635 203.077 181.553 202.919C181.553 202.857 178.381 196.88 173.681 196.364C173.029 196.288 172.368 196.345 171.739 196.531C171.11 196.718 170.525 197.031 170.02 197.451C169.501 197.883 169.075 198.415 168.768 199.017C168.461 199.618 168.279 200.275 168.234 200.949C168.01 203.944 168.947 207.904 171.019 212.72C171.447 213.704 171.82 214.696 172.105 215.436L175.556 224.334L174.951 224.959C172.01 228.009 162.542 239.155 164.084 254.586C164.753 260.937 167.097 266.996 170.876 272.144C171.088 272.434 171.176 272.797 171.121 273.152C171.067 273.507 170.873 273.826 170.584 274.039C170.357 274.212 170.082 274.31 169.796 274.317V274.317Z" fill="black"/>
<path d="M246.737 408.469C237.539 407.863 228.308 408.959 219.508 411.702C186.763 422.019 172.235 452.257 169.151 459.104L246.737 459.505V408.469Z" fill="white"/>
<path d="M248.096 460.87L167.052 460.449L167.908 458.547C172.975 447.327 188.094 420.178 219.1 410.405C228.058 407.611 237.455 406.494 246.819 407.11L248.096 407.192V460.87ZM171.277 457.759L245.379 458.14V409.753C236.765 409.333 228.144 410.439 219.915 413.02C191.585 421.924 176.935 445.961 171.277 457.759Z" fill="black"/>
<path d="M157.645 255.442C156.318 255.455 155.006 255.167 153.807 254.6C152.314 253.868 151.048 252.744 150.146 251.347C149.681 251.915 149.1 252.378 148.442 252.705C147.193 253.296 145.764 253.382 144.455 252.943C144.287 252.882 144.133 252.788 144.001 252.667C143.87 252.547 143.763 252.401 143.688 252.24C143.613 252.078 143.57 251.903 143.562 251.725C143.554 251.546 143.582 251.368 143.643 251.2C143.704 251.033 143.798 250.879 143.918 250.747C144.039 250.616 144.184 250.509 144.346 250.434C144.508 250.358 144.683 250.316 144.861 250.308C145.039 250.3 145.217 250.328 145.385 250.389C146.005 250.575 146.671 250.529 147.26 250.26C147.67 249.996 148.024 249.652 148.3 249.25C148.577 248.848 148.77 248.394 148.869 247.917L150.228 243.495L151.498 247.937C151.498 247.937 152.401 250.905 155.023 252.141C156.884 253.024 159.248 252.868 162.046 251.686C162.212 251.608 162.391 251.565 162.574 251.558C162.756 251.551 162.939 251.581 163.109 251.646C163.28 251.712 163.436 251.811 163.568 251.938C163.699 252.065 163.804 252.217 163.875 252.385C163.946 252.553 163.983 252.734 163.983 252.917C163.983 253.1 163.945 253.281 163.874 253.449C163.802 253.617 163.697 253.769 163.565 253.896C163.433 254.022 163.277 254.121 163.106 254.186C161.388 254.965 159.531 255.393 157.645 255.442V255.442Z" fill="black"/>
<path d="M150.167 249.683C149.879 249.682 149.598 249.589 149.366 249.418C149.134 249.247 148.963 249.007 148.876 248.732L140.305 221.523C140.197 221.179 140.23 220.806 140.396 220.486C140.563 220.166 140.85 219.926 141.194 219.818C141.539 219.71 141.911 219.743 142.231 219.91C142.551 220.076 142.791 220.363 142.899 220.708L151.437 247.917C151.491 248.087 151.51 248.266 151.495 248.444C151.479 248.622 151.428 248.795 151.346 248.954C151.263 249.112 151.15 249.253 151.013 249.367C150.876 249.482 150.718 249.568 150.547 249.622C150.424 249.66 150.296 249.68 150.167 249.683Z" fill="black"/>
<path d="M163.615 244.052C163.335 244.051 163.062 243.964 162.834 243.802C162.605 243.641 162.432 243.412 162.338 243.149L152.795 216.449C152.735 216.281 152.709 216.102 152.717 215.924C152.726 215.745 152.77 215.571 152.846 215.409C152.923 215.248 153.03 215.103 153.162 214.983C153.295 214.863 153.449 214.77 153.617 214.71C153.785 214.65 153.964 214.623 154.142 214.632C154.321 214.641 154.495 214.684 154.657 214.761C154.818 214.837 154.963 214.944 155.083 215.077C155.203 215.209 155.296 215.364 155.356 215.532L164.865 242.238C164.938 242.444 164.961 242.663 164.931 242.879C164.901 243.095 164.82 243.301 164.694 243.478C164.568 243.656 164.401 243.801 164.208 243.901C164.014 244.001 163.799 244.053 163.581 244.052H163.615Z" fill="black"/>
<path d="M519.271 93.8642H430.396C417.507 93.8642 407.059 104.311 407.059 117.199C407.059 130.086 417.507 140.533 430.396 140.533H519.271C532.16 140.533 542.609 130.086 542.609 117.199C542.609 104.311 532.16 93.8642 519.271 93.8642Z" fill="white"/>
<path d="M519.305 141.898H430.389C423.839 141.898 417.558 139.296 412.926 134.665C408.295 130.033 405.693 123.752 405.693 117.202C405.693 110.652 408.295 104.371 412.926 99.7392C417.558 95.1078 423.839 92.5058 430.389 92.5058H519.305C525.855 92.5058 532.136 95.1077 536.768 99.7392C541.399 104.371 544.001 110.652 544.001 117.202C544.001 123.752 541.399 130.033 536.768 134.665C532.136 139.296 525.855 141.898 519.305 141.898V141.898ZM430.389 95.2227C424.56 95.2227 418.969 97.5383 414.848 101.66C410.726 105.782 408.41 111.373 408.41 117.202C408.41 123.031 410.726 128.622 414.848 132.744C418.969 136.866 424.56 139.181 430.389 139.181H519.305C525.134 139.181 530.725 136.866 534.847 132.744C538.969 128.622 541.284 123.031 541.284 117.202C541.284 111.373 538.969 105.782 534.847 101.66C530.725 97.5383 525.134 95.2227 519.305 95.2227H430.389Z" fill="black"/>
<path d="M437.901 124.803C442.099 124.803 445.502 121.4 445.502 117.202C445.502 113.005 442.099 109.602 437.901 109.602C433.704 109.602 430.301 113.005 430.301 117.202C430.301 121.4 433.704 124.803 437.901 124.803Z" fill="#64C5EB"/>
<path d="M474.83 124.803C479.028 124.803 482.431 121.4 482.431 117.202C482.431 113.005 479.028 109.602 474.83 109.602C470.633 109.602 467.23 113.005 467.23 117.202C467.23 121.4 470.633 124.803 474.83 124.803Z" fill="#64C5EB"/>
<path d="M511.759 124.803C515.957 124.803 519.359 121.4 519.359 117.202C519.359 113.005 515.957 109.602 511.759 109.602C507.561 109.602 504.159 113.005 504.159 117.202C504.159 121.4 507.561 124.803 511.759 124.803Z" fill="#64C5EB"/>
<path d="M75.2702 221.794H32.1062C23.2684 221.794 16.104 228.959 16.104 237.796V280.96C16.104 289.798 23.2684 296.963 32.1062 296.963H75.2702C84.1079 296.963 91.2724 289.798 91.2724 280.96V237.796C91.2724 228.959 84.1079 221.794 75.2702 221.794Z" fill="white"/>
<path d="M75.2634 298.321H32.1063C27.503 298.314 23.0904 296.481 19.836 293.226C16.5816 289.97 14.751 285.557 14.7456 280.953V237.783C14.751 233.179 16.5816 228.766 19.836 225.51C23.0904 222.255 27.503 220.422 32.1063 220.415H75.2634C79.8679 220.421 84.2822 222.252 87.5381 225.508C90.7939 228.764 92.6254 233.178 92.6308 237.783V280.933C92.6308 285.541 90.8017 289.961 87.5453 293.221C84.2888 296.481 79.8714 298.315 75.2634 298.321V298.321ZM32.1063 223.152C28.2259 223.156 24.5054 224.698 21.7603 227.441C19.0152 230.183 17.4696 233.902 17.4625 237.783V280.933C17.466 284.816 19.0098 288.54 21.7551 291.286C24.5004 294.033 28.223 295.578 32.1063 295.584H75.2634C79.1473 295.578 82.8706 294.033 85.617 291.287C88.3633 288.54 89.9086 284.817 89.914 280.933V237.783C89.9104 233.898 88.3657 230.174 85.619 227.427C82.8722 224.68 79.1479 223.136 75.2634 223.132L32.1063 223.152Z" fill="black"/>
<path d="M74.6522 247.095C73.8217 245.57 72.582 244.306 71.0728 243.447C64.138 239.569 57.1353 241.973 53.7053 247.013C50.2277 241.912 43.0892 239.501 36.0458 243.617C34.7678 244.361 33.6997 245.417 32.9418 246.687C29.7563 252.039 30.3812 257.412 33.0573 261.236C33.1056 261.304 33.1577 261.37 33.2135 261.433V261.467C33.2678 261.542 36.6775 265.495 38.8102 267.654C42.8816 271.621 47.1502 275.379 51.5998 278.916C52.1753 279.385 52.895 279.641 53.6374 279.641C54.3798 279.641 55.0994 279.385 55.675 278.916C59.5126 275.853 62.6302 273.197 64.9463 271.166C66.7156 269.693 68.3856 268.105 69.9453 266.411C73.2734 262.737 80.6021 257.921 74.6522 247.095Z" fill="#E84D8A"/>
<path d="M566.055 193.566H433.575C420.963 193.566 410.74 203.789 410.74 216.401V361.433C410.74 374.045 420.963 384.268 433.575 384.268H566.055C578.667 384.268 588.89 374.045 588.89 361.433V216.401C588.89 203.789 578.667 193.566 566.055 193.566Z" fill="white"/>
<path d="M566.055 385.627H433.575C427.161 385.619 421.011 383.068 416.476 378.532C411.94 373.997 409.389 367.847 409.382 361.433V216.401C409.389 209.987 411.94 203.837 416.476 199.301C421.011 194.766 427.161 192.215 433.575 192.207H566.055C572.47 192.215 578.619 194.766 583.155 199.301C587.69 203.837 590.242 209.987 590.249 216.401V361.433C590.242 367.847 587.69 373.997 583.155 378.532C578.619 383.068 572.47 385.619 566.055 385.627ZM433.575 194.924C427.881 194.931 422.423 197.196 418.397 201.223C414.371 205.249 412.106 210.707 412.098 216.401V361.433C412.106 367.127 414.371 372.585 418.397 376.611C422.423 380.637 427.881 382.902 433.575 382.91H566.055C571.749 382.902 577.208 380.637 581.234 376.611C585.26 372.585 587.525 367.127 587.532 361.433V216.401C587.527 210.707 585.262 205.247 581.236 201.221C577.209 197.194 571.75 194.93 566.055 194.924H433.575Z" fill="black"/>
<path d="M455.248 265.284H437.528C432.385 265.284 428.216 269.453 428.216 274.596V292.317C428.216 297.459 432.385 301.629 437.528 301.629H455.248C460.391 301.629 464.56 297.459 464.56 292.317V274.596C464.56 269.453 460.391 265.284 455.248 265.284Z" fill="#64C5EB"/>
<path d="M455.248 320.456H437.528C432.385 320.456 428.216 324.625 428.216 329.768V347.489C428.216 352.632 432.385 356.801 437.528 356.801H455.248C460.391 356.801 464.56 352.632 464.56 347.489V329.768C464.56 324.625 460.391 320.456 455.248 320.456Z" fill="#64C5EB"/>
<path d="M569.03 274.616H486.995C486.635 274.616 486.289 274.473 486.034 274.218C485.78 273.964 485.636 273.618 485.636 273.258C485.636 272.898 485.78 272.552 486.034 272.297C486.289 272.042 486.635 271.899 486.995 271.899H569.03C569.39 271.899 569.736 272.042 569.991 272.297C570.245 272.552 570.389 272.898 570.389 273.258C570.389 273.618 570.245 273.964 569.991 274.218C569.736 274.473 569.39 274.616 569.03 274.616Z" fill="black"/>
<path d="M537.562 294.619H486.995C486.635 294.619 486.289 294.476 486.034 294.221C485.78 293.966 485.636 293.621 485.636 293.261C485.636 292.9 485.78 292.555 486.034 292.3C486.289 292.045 486.635 291.902 486.995 291.902H537.562C537.923 291.902 538.268 292.045 538.523 292.3C538.778 292.555 538.921 292.9 538.921 293.261C538.921 293.621 538.778 293.966 538.523 294.221C538.268 294.476 537.923 294.619 537.562 294.619Z" fill="black"/>
<path d="M569.03 329.986H486.995C486.635 329.986 486.289 329.843 486.034 329.588C485.78 329.333 485.636 328.988 485.636 328.627C485.636 328.267 485.78 327.922 486.034 327.667C486.289 327.412 486.635 327.269 486.995 327.269H569.03C569.39 327.269 569.736 327.412 569.991 327.667C570.245 327.922 570.389 328.267 570.389 328.627C570.389 328.988 570.245 329.333 569.991 329.588C569.736 329.843 569.39 329.986 569.03 329.986Z" fill="black"/>
<path d="M537.562 349.988H486.995C486.635 349.988 486.289 349.845 486.034 349.591C485.78 349.336 485.636 348.99 485.636 348.63C485.636 348.27 485.78 347.924 486.034 347.669C486.289 347.415 486.635 347.272 486.995 347.272H537.562C537.923 347.272 538.268 347.415 538.523 347.669C538.778 347.924 538.921 348.27 538.921 348.63C538.921 348.99 538.778 349.336 538.523 349.591C538.268 349.845 537.923 349.988 537.562 349.988Z" fill="black"/>
<path d="M460.628 219.125C460.061 218.08 459.211 217.216 458.176 216.632C453.421 213.97 448.626 215.62 446.276 219.077C443.892 215.579 439.001 213.929 434.186 216.734C433.313 217.248 432.584 217.975 432.067 218.846C429.88 222.507 430.308 226.189 432.141 228.81C432.174 228.859 432.21 228.904 432.25 228.946C432.291 229.001 434.627 231.711 436.088 233.191C437.337 234.448 440.421 237.328 444.849 240.9C445.243 241.217 445.733 241.39 446.238 241.39C446.744 241.39 447.234 241.217 447.627 240.9C450.256 238.795 452.382 236.975 453.978 235.589C455.178 234.58 456.312 233.496 457.374 232.342C459.683 229.85 464.71 226.549 460.628 219.125Z" fill="#E84D8A"/>
<path d="M403.282 473.395H256.165C253.92 473.396 251.697 472.954 249.623 472.096C247.549 471.237 245.664 469.979 244.077 468.392C242.489 466.805 241.23 464.921 240.371 462.847C239.511 460.773 239.069 458.55 239.069 456.306V428.098C239.071 418.034 243.07 408.383 250.186 401.267C257.302 394.151 266.953 390.152 277.017 390.151H436.305C442.971 390.151 449.363 392.798 454.076 397.511C458.789 402.224 461.436 408.616 461.436 415.281V415.281C461.434 422.916 459.927 430.475 457.003 437.527C454.079 444.579 449.795 450.986 444.395 456.382C438.995 461.778 432.585 466.058 425.531 468.977C418.476 471.896 410.916 473.397 403.282 473.395Z" fill="#7F58AF"/>
<path d="M175.78 476.091C169.689 475.965 163.684 474.64 158.105 472.192C152.527 469.745 147.485 466.223 143.268 461.826C139.051 457.43 135.741 452.247 133.528 446.571C131.315 440.896 130.241 434.84 130.368 428.75L132.901 306.865C133.049 299.866 135.971 293.211 141.023 288.365C146.076 283.519 152.846 280.877 159.846 281.021L199.817 281.857C206.811 282.008 213.459 284.931 218.299 289.982C223.139 295.033 225.775 301.8 225.627 308.794L223.121 430.679C222.995 436.769 221.67 442.775 219.222 448.353C216.775 453.932 213.253 458.973 208.856 463.19C204.46 467.407 199.277 470.717 193.601 472.931C187.926 475.144 181.87 476.218 175.78 476.091Z" fill="#7F58AF"/>
<path d="M393.311 390.144H356.43C356.07 390.144 355.724 390 355.469 389.746C355.215 389.491 355.072 389.145 355.072 388.785C355.072 388.425 355.215 388.079 355.469 387.825C355.724 387.57 356.07 387.427 356.43 387.427H393.311C393.671 387.427 394.017 387.57 394.272 387.825C394.526 388.079 394.67 388.425 394.67 388.785C394.67 389.145 394.526 389.491 394.272 389.746C394.017 390 393.671 390.144 393.311 390.144Z" fill="black"/>
<path d="M350.724 192.663C348.772 192.663 346.863 192.084 345.24 191C343.616 189.915 342.35 188.374 341.602 186.571C340.854 184.768 340.658 182.783 341.037 180.868C341.416 178.953 342.355 177.193 343.734 175.811C345.113 174.429 346.871 173.487 348.785 173.103C350.7 172.72 352.685 172.913 354.49 173.657C356.294 174.401 357.838 175.664 358.926 177.285C360.013 178.907 360.596 180.814 360.6 182.767C360.602 184.065 360.348 185.351 359.852 186.551C359.357 187.751 358.63 188.842 357.713 189.761C356.796 190.68 355.706 191.409 354.507 191.907C353.308 192.405 352.023 192.662 350.724 192.663V192.663ZM350.724 175.628C349.308 175.628 347.923 176.048 346.745 176.836C345.567 177.623 344.65 178.743 344.108 180.052C343.567 181.361 343.427 182.802 343.705 184.191C343.982 185.58 344.666 186.856 345.67 187.856C346.673 188.857 347.95 189.537 349.34 189.811C350.73 190.085 352.17 189.94 353.478 189.395C354.786 188.85 355.903 187.929 356.687 186.749C357.471 185.569 357.887 184.183 357.883 182.767C357.876 180.872 357.119 179.057 355.777 177.72C354.436 176.382 352.619 175.63 350.724 175.628V175.628Z" fill="black"/>
<path d="M225.817 312.347C225.457 312.347 225.112 312.204 224.857 311.949C224.602 311.694 224.459 311.349 224.459 310.988C224.282 283.881 202.113 283.29 201.182 283.29C200.822 283.29 200.477 283.147 200.222 282.892C199.967 282.637 199.824 282.292 199.824 281.932C199.824 281.571 199.967 281.226 200.222 280.971C200.477 280.716 200.822 280.573 201.182 280.573C201.44 280.573 226.952 281.164 227.149 310.995C227.149 311.355 227.006 311.701 226.751 311.956C226.496 312.21 226.151 312.354 225.79 312.354L225.817 312.347Z" fill="black"/>
<path d="M305.231 252.807H263.12C262.759 252.807 262.414 252.664 262.159 252.409C261.904 252.154 261.761 251.809 261.761 251.449C261.761 251.088 261.904 250.743 262.159 250.488C262.414 250.233 262.759 250.09 263.12 250.09H305.231C305.591 250.09 305.937 250.233 306.191 250.488C306.446 250.743 306.589 251.088 306.589 251.449C306.589 251.809 306.446 252.154 306.191 252.409C305.937 252.664 305.591 252.807 305.231 252.807Z" fill="black"/>
<path d="M265.321 468.117C264.96 468.117 264.615 467.974 264.36 467.719C264.105 467.464 263.962 467.119 263.962 466.758V405.14C263.962 404.78 264.105 404.434 264.36 404.18C264.615 403.925 264.96 403.782 265.321 403.782C265.681 403.782 266.026 403.925 266.281 404.18C266.536 404.434 266.679 404.78 266.679 405.14V466.758C266.679 467.119 266.536 467.464 266.281 467.719C266.026 467.974 265.681 468.117 265.321 468.117Z" fill="black"/>
<path d="M209.346 306.573H147.735C147.375 306.573 147.029 306.43 146.775 306.175C146.52 305.921 146.377 305.575 146.377 305.215C146.377 304.855 146.52 304.509 146.775 304.254C147.029 304 147.375 303.856 147.735 303.856H209.346C209.707 303.856 210.052 304 210.307 304.254C210.562 304.509 210.705 304.855 210.705 305.215C210.705 305.575 210.562 305.921 210.307 306.175C210.052 306.43 209.707 306.573 209.346 306.573Z" fill="black"/>
<path d="M61.3938 398.681C61.1154 398.682 60.8436 398.597 60.6153 398.437C60.3869 398.278 60.2129 398.053 60.1169 397.792C52.238 376.301 35.9505 358.852 35.7875 358.683C35.5398 358.42 35.4064 358.071 35.4166 357.71C35.4267 357.35 35.5797 357.008 35.8418 356.76C36.1039 356.513 36.4537 356.379 36.8142 356.389C37.1746 356.4 37.5163 356.553 37.764 356.815C37.927 356.991 54.5949 374.827 62.6707 396.888C62.7934 397.226 62.7772 397.599 62.6257 397.925C62.4742 398.251 62.1998 398.503 61.8624 398.627C61.711 398.674 61.552 398.693 61.3938 398.681V398.681Z" fill="black"/>
<path d="M69.0825 400.895C68.7223 400.895 68.3767 400.752 68.122 400.498C67.8672 400.243 67.7241 399.897 67.7241 399.537V380.933C67.7241 380.573 67.8672 380.228 68.122 379.973C68.3767 379.718 68.7223 379.575 69.0825 379.575C69.4428 379.575 69.7883 379.718 70.0431 379.973C70.2979 380.228 70.441 380.573 70.441 380.933V399.537C70.441 399.897 70.2979 400.243 70.0431 400.498C69.7883 400.752 69.4428 400.895 69.0825 400.895Z" fill="black"/>
<path d="M109.108 427.514C109.107 423.067 107.339 418.802 104.195 415.658C101.05 412.513 96.7857 410.746 92.3386 410.744H88.6029V398.077H42.3758V410.751H38.6401C34.1925 410.751 29.927 412.518 26.7821 415.663C23.6372 418.808 21.8704 423.073 21.8704 427.521V427.521C21.8758 431.964 23.6452 436.224 26.7897 439.363C29.9343 442.503 34.1966 444.265 38.6401 444.263C36.4382 444.262 34.2577 444.695 32.2231 445.537C30.1886 446.379 28.3398 447.614 26.7825 449.171C25.2252 450.727 23.9899 452.576 23.147 454.61C22.3042 456.644 21.8704 458.824 21.8704 461.026V461.026C21.8695 463.229 22.3026 465.41 23.1451 467.445C23.9875 469.48 25.2227 471.329 26.7801 472.886C28.3375 474.444 30.1865 475.679 32.2216 476.521C34.2566 477.364 36.4376 477.797 38.6401 477.796H92.3386C96.7862 477.796 101.052 476.029 104.197 472.884C107.342 469.739 109.108 465.474 109.108 461.026V461.026C109.107 456.58 107.339 452.316 104.194 449.173C101.049 446.029 96.785 444.263 92.3386 444.263C96.7827 444.263 101.045 442.499 104.189 439.359C107.334 436.218 109.103 431.958 109.108 427.514V427.514Z" fill="#64C5EB"/>
<path d="M93.0448 445.717H74.1016C73.7413 445.717 73.3958 445.573 73.141 445.319C72.8863 445.064 72.7432 444.718 72.7432 444.358C72.7432 443.998 72.8863 443.652 73.141 443.398C73.3958 443.143 73.7413 443 74.1016 443H93.0448C93.4051 443 93.7506 443.143 94.0054 443.398C94.2601 443.652 94.4032 443.998 94.4032 444.358C94.4032 444.718 94.2601 445.064 94.0054 445.319C93.7506 445.573 93.4051 445.717 93.0448 445.717V445.717Z" fill="black"/>
<path d="M47.5513 445.622H37.6348C37.2745 445.622 36.929 445.479 36.6742 445.224C36.4195 444.969 36.2764 444.624 36.2764 444.263C36.2764 443.903 36.4195 443.558 36.6742 443.303C36.929 443.048 37.2745 442.905 37.6348 442.905H47.5513C47.9116 442.905 48.2571 443.048 48.5118 443.303C48.7666 443.558 48.9097 443.903 48.9097 444.263C48.9097 444.624 48.7666 444.969 48.5118 445.224C48.2571 445.479 47.9116 445.622 47.5513 445.622Z" fill="black"/>
<path d="M65.4961 402.016C78.494 402.016 89.0308 399.82 89.0308 397.112C89.0308 394.404 78.494 392.208 65.4961 392.208C52.4983 392.208 41.9614 394.404 41.9614 397.112C41.9614 399.82 52.4983 402.016 65.4961 402.016Z" fill="black"/>
<path d="M69.0824 380.933C75.2156 380.933 80.1875 375.961 80.1875 369.828C80.1875 363.695 75.2156 358.723 69.0824 358.723C62.9492 358.723 57.9773 363.695 57.9773 369.828C57.9773 375.961 62.9492 380.933 69.0824 380.933Z" fill="#FEB326"/>
<path d="M32.7785 365.108C39.3505 365.108 44.6783 359.78 44.6783 353.208C44.6783 346.636 39.3505 341.308 32.7785 341.308C26.2064 341.308 20.8787 346.636 20.8787 353.208C20.8787 359.78 26.2064 365.108 32.7785 365.108Z" fill="#FEB326"/>
<path d="M176.038 182.454C174.68 178.746 172.717 173.985 169.959 170.004C167.623 166.608 164.953 165.182 162.019 165.691C161.171 165.793 160.355 166.08 159.63 166.533C158.906 166.987 158.291 167.594 157.828 168.313C155.512 172.028 157.054 178.583 157.828 181.218L157.93 181.558L155.342 182.38L155.22 181.979C154.14 178.257 152.734 171.349 155.526 166.873C156.187 165.827 157.07 164.939 158.112 164.271C159.155 163.603 160.33 163.172 161.557 163.008C165.571 162.329 169.253 164.19 172.2 168.442C175.148 172.694 177.152 177.639 178.592 181.49L176.038 182.454Z" fill="black"/>
</svg>
